<svg xmlns="http://www.w3.org/2000/svg" height="40" viewBox="0 0 410 100" xml:space="preserve"><g fill="currentColor"><path d="M127.9 33.9 138 58.2l10.1-24.3h7.5l-15.4 35-4.4.8-15.7-35.8h7.8zM187.1 33.9l-1.7 5.9h-16.1v8.4h13.9l-1.7 5.7h-12.1V63h17.8l-1.7 5.9h-22.8v-35h24.4zM221.4 44.4c0 5-3.4 8.7-7.9 10.1l10.9 13.9-7.1 1.2-10.9-14.4H202v13.6h-6.7v-35h12.8c8.7.1 13.3 4.6 13.3 10.6zm-13.3 5.5c3.6 0 6.1-2 6.1-5.2 0-3-2.4-5-6.4-5H202v10.2h6.1zM232.6 34.7l6.7-1.4v35.6h-6.7V34.7zM260.4 63.9c3.7 0 6-1.9 6-4.3 0-2.2-1.6-3.6-7.5-5.8-5.9-2.2-9.7-4.7-9.7-10.2 0-5.3 4.4-10.4 12.4-10.4 3.9 0 8 1.2 11.3 3l-1.8 5.9c-3.1-1.6-6.7-2.9-9.6-2.9-3.6 0-5.3 1.9-5.3 3.9s1.6 3.3 6.7 5.2c7.2 2.7 10.6 5.8 10.6 10.8 0 6.1-5.1 10.8-13.1 10.8-4.2 0-8.7-1.4-12.1-3.3l1.9-5.9c3.1 1.8 7.2 3.2 10.2 3.2zM294.6 34.1l4.4-.8 15.9 35.6h-7.5l-2.9-7H289l-3 7h-7.2l15.8-34.8zm7.6 22.3-5.4-12.9-5.5 12.9h10.9zM347.8 44.4c0 5-3.4 8.7-7.9 10.1l10.9 13.9-7.1 1.2-10.9-14.4h-4.4v13.6h-6.7v-35h12.8c8.7.1 13.3 4.6 13.3 10.6zm-13.2 5.5c3.6 0 6.1-2 6.1-5.2 0-3-2.4-5-6.4-5h-5.8v10.2h6.1zM354.4 33.9h33.1l-1.8 6h-12.2v29h-6.7v-29h-14.1l1.7-6zM50 0C22.4 0 0 22.4 0 50s22.4 50 50 50 50-22.4 50-50S77.6 0 50 0zm39.4 33.9c.4.9.7 1.8 1 2.8l-7 2.3c-.3-.8-.5-1.5-.8-2.3l6.8-2.8zM80.2 20c.7.7 1.4 1.4 2 2.2L76.6 27c-.5-.6-1.1-1.2-1.7-1.8l5.3-5.2zm-13.8-9.3 2.7 1.2-3.3 6.6c-.7-.4-1.5-.7-2.2-1l2.8-6.8zM50.2 7.4h1.5c.5 0 1 0 1.5.1l-.5 7.4c-.4 0-.8-.1-1.2-.1h-1.2l-.1-7.4zM36.6 9.6l2.3 7c-.8.3-1.5.5-2.3.8l-2.8-6.8c1-.4 1.9-.7 2.8-1zM7.4 48.4c0-.5 0-1 .1-1.5l7.4.5c0 .4-.1.8-.1 1.2v1.2H7.4v-1.4zm3.2 17.8c-.4-.9-.7-1.8-1-2.8l7-2.3c.3.8.5 1.5.8 2.3l-6.8 2.8zm.1-32.6 1.2-2.7 6.6 3.3c-.4.7-.7 1.5-1 2.2l-6.8-2.8zM19.8 80c-.7-.7-1.4-1.4-2-2.2l5.6-4.8c.5.6 1.1 1.2 1.7 1.8L19.8 80zm5.4-54.9L20 19.8c.7-.7 1.4-1.4 2.2-2l4.8 5.6c-.6.5-1.2 1.1-1.8 1.7zm8.3 64.2-2.7-1.2 3.3-6.6c.7.4 1.5.7 2.2 1l-2.8 6.8zm-3.5-57h6l6.5 13.3-5.6 1L30 32.3zm19.8 60.3h-1.5c-.5 0-1 0-1.5-.1l.5-7.4c.4 0 .8.1 1.2.1h1.2l.1 7.4zm13.6-2.1-2.3-7c.8-.3 1.5-.5 2.3-.8l2.8 6.8c-1 .3-1.9.6-2.8 1zM52.1 70.7l-3.3.6-9.3-19.1 5.5-1 5.5 11.4 13.7-30.2H70L52.1 70.7zm25.7 11.5L73 76.7c.6-.5 1.2-1.1 1.8-1.7l5.2 5.2c-.7.7-1.4 1.4-2.2 2zm10.2-13-6.6-3.3c.4-.7.7-1.5 1-2.2l6.8 2.9c-.3.8-.7 1.7-1.2 2.6zm4.4-16.1-7.4-.5c0-.4.1-.8.1-1.2v-1.2h7.4v1.5c0 .5 0 1-.1 1.4z"/></g></svg>